<?xml version="1.0" encoding="UTF-8" standalone="no"?><!DOCTYPE svg PUBLIC "-//W3C//DTD SVG 1.1//EN" "http://www.w3.org/Graphics/SVG/1.1/DTD/svg11.dtd"><svg width="100%" height="100%" viewBox="0 0 124 85" version="1.1" xmlns="http://www.w3.org/2000/svg" xmlns:xlink="http://www.w3.org/1999/xlink" xml:space="preserve" xmlns:serif="http://www.serif.com/" style="fill-rule:evenodd;clip-rule:evenodd;stroke-linejoin:round;stroke-miterlimit:2;"><rect id="_512_Peach-Orange" serif:id="512_Peach Orange" x="0.134" y="0.01" width="122.88" height="84.384" style="fill:none;"/><g><g id="stroke_0.7_outlined"><g><path d="M60.992,42.163l1.497,0.86l0,0.878l-21.024,12.072l-21.024,-12.072l0,-24.144l21.024,-12.072l21.024,12.072l0,0.879l-10.113,5.807c-0,-0 -0.765,0.439 -0.765,0.439l-10.146,-5.825l-9.38,5.386l-0,10.773l9.38,5.386l10.146,-5.826c-0,0 0.765,0.44 0.765,0.44c-0,-0 8.616,4.947 8.616,4.947Zm-0.765,-21.985l-8.616,4.947l-10.146,-5.825l-10.91,6.264l-0,12.53l10.91,6.265l10.146,-5.826l8.616,4.948l-18.762,10.772l-19.526,-11.212l0,-22.424l19.526,-11.212l18.762,10.773Z" style="fill:#fc9;"/><path d="M81.219,42.163l1.497,0.86l0,0.878l-21.024,12.072l-21.024,-12.072l0,-24.144l21.024,-12.072l21.024,12.072l0,0.879l-10.113,5.807c-0,-0 -0.765,0.439 -0.765,0.439l-10.146,-5.825l-9.38,5.386l-0,10.773l9.38,5.386l10.146,-5.826c-0,0 0.765,0.44 0.765,0.44c-0,-0 8.616,4.947 8.616,4.947Zm-0.765,-21.985l-8.616,4.947l-10.146,-5.825l-10.91,6.264l-0,12.53l10.91,6.265l10.146,-5.826l8.616,4.948l-18.762,10.772l-19.526,-11.212l0,-22.424l19.526,-11.212l18.762,10.773Z" style="fill:#fc9;"/><path d="M72.539,35.14l-0,2.076l9.38,5.386l10.146,-5.826l10.878,6.247l0,0.878l-21.024,12.072l-21.024,-12.072l0,-24.144l21.024,-12.072l21.024,12.072l0,0.879l-10.878,6.246l-10.146,-5.825l-9.38,5.386l-0,2.054l20.29,0l0,6.643l-20.29,0Zm18.76,-1.53l0,-3.582l-20.29,-0l-0,-4.464l10.91,-6.264l10.146,5.825l8.616,-4.947l-18.762,-10.773l-19.526,11.212l-0,22.424l19.526,11.212l18.762,-10.772l-8.616,-4.948l-10.146,5.826l-10.91,-6.265l-0,-4.484l20.29,0Z" style="fill:#fc9;"/></g><g><path d="M56.523,67.924l0,0.736l-2.976,-0l0,7.868l-2.106,-0l-0,-7.868l-2.982,-0l-0,-0.736l8.064,-0Z" style="fill:#fc9;fill-rule:nonzero;"/><path d="M58.946,67.924l3.236,-0c0.558,-0 1.045,0.058 1.462,0.174c0.417,0.117 0.764,0.28 1.041,0.489c0.277,0.209 0.485,0.458 0.625,0.745c0.139,0.288 0.209,0.601 0.209,0.94c-0,0.245 -0.048,0.476 -0.143,0.694c-0.095,0.218 -0.228,0.419 -0.399,0.603c-0.172,0.184 -0.379,0.347 -0.622,0.489c-0.244,0.141 -0.511,0.259 -0.803,0.352l3.065,4.118l-2.297,-0l-2.887,-3.89l-0.374,0l-0,3.89l-2.113,-0l-0,-8.604Zm2.113,3.959l0.456,0c0.258,0 0.497,-0.036 0.717,-0.108c0.22,-0.072 0.411,-0.174 0.571,-0.307c0.161,-0.134 0.287,-0.298 0.378,-0.492c0.091,-0.195 0.136,-0.415 0.136,-0.66c0,-0.228 -0.035,-0.438 -0.104,-0.628c-0.07,-0.191 -0.166,-0.354 -0.289,-0.492c-0.123,-0.137 -0.271,-0.244 -0.444,-0.32c-0.174,-0.076 -0.362,-0.115 -0.565,-0.115l-0.856,0l-0,3.122Z" style="fill:#fc9;fill-rule:nonzero;"/><path d="M72.573,67.746l4.036,8.782l-2.157,-0l-1.079,-2.348l-3.344,-0l-1.129,2.348l-1.434,-0l4.194,-8.782l0.913,0Zm-2.144,5.634l2.589,0l-1.276,-2.779l-1.313,2.779Z" style="fill:#fc9;fill-rule:nonzero;"/><path d="M78.854,67.924l3.121,-0c0.804,-0 1.542,0.094 2.215,0.282c0.672,0.189 1.252,0.462 1.738,0.822c0.487,0.359 0.864,0.801 1.133,1.326c0.268,0.525 0.403,1.123 0.403,1.796c-0,0.604 -0.114,1.172 -0.343,1.703c-0.228,0.531 -0.561,0.995 -0.999,1.393c-0.438,0.397 -0.976,0.71 -1.615,0.939c-0.639,0.228 -1.37,0.343 -2.195,0.343l-3.458,-0l-0,-8.604Zm2.113,7.722l1.123,-0c0.414,-0 0.804,-0.077 1.17,-0.229c0.366,-0.152 0.687,-0.376 0.962,-0.672c0.274,-0.296 0.491,-0.66 0.65,-1.092c0.159,-0.431 0.238,-0.926 0.238,-1.484c-0,-0.483 -0.075,-0.93 -0.225,-1.342c-0.151,-0.413 -0.359,-0.769 -0.625,-1.069c-0.267,-0.301 -0.585,-0.537 -0.955,-0.708c-0.37,-0.171 -0.775,-0.257 -1.215,-0.257l-1.123,0l-0,6.853Z" style="fill:#fc9;fill-rule:nonzero;"/><rect x="90.419" y="67.924" width="2.106" height="8.604" style="fill:#fc9;fill-rule:nonzero;"/><path d="M95.723,67.924l1.351,-0l4.905,5.469l-0,-5.469l1.319,-0l0,8.73l-0.907,0l-5.33,-6.04l0,5.914l-1.338,-0l-0,-8.604Z" style="fill:#fc9;fill-rule:nonzero;"/><path d="M111.761,72.334l3.573,-0l-0,3.312c-0.275,0.148 -0.55,0.283 -0.825,0.406c-0.275,0.122 -0.569,0.228 -0.882,0.317c-0.313,0.089 -0.655,0.159 -1.025,0.209c-0.37,0.051 -0.786,0.076 -1.247,0.076c-0.74,0 -1.422,-0.103 -2.046,-0.31c-0.624,-0.208 -1.163,-0.5 -1.618,-0.876c-0.454,-0.377 -0.809,-0.831 -1.063,-1.364c-0.253,-0.533 -0.38,-1.123 -0.38,-1.77c-0,-0.686 0.127,-1.312 0.38,-1.878c0.254,-0.567 0.607,-1.054 1.06,-1.46c0.453,-0.406 0.991,-0.721 1.615,-0.945c0.624,-0.224 1.306,-0.336 2.046,-0.336c0.436,-0 0.856,0.059 1.259,0.177c0.404,0.119 0.778,0.275 1.12,0.47c0.343,0.194 0.652,0.417 0.927,0.669c0.275,0.252 0.501,0.511 0.679,0.777l-0.87,0.793c-0.182,-0.258 -0.372,-0.497 -0.571,-0.717c-0.198,-0.219 -0.41,-0.411 -0.634,-0.574c-0.224,-0.163 -0.464,-0.291 -0.72,-0.384c-0.256,-0.093 -0.53,-0.139 -0.822,-0.139c-0.444,-0 -0.858,0.08 -1.24,0.241c-0.383,0.161 -0.715,0.392 -0.997,0.695c-0.281,0.302 -0.501,0.673 -0.659,1.113c-0.159,0.44 -0.238,0.939 -0.238,1.498c-0,0.558 0.084,1.051 0.253,1.478c0.17,0.427 0.4,0.787 0.692,1.079c0.292,0.291 0.633,0.512 1.025,0.663c0.391,0.15 0.811,0.225 1.259,0.225c0.267,-0 0.518,-0.035 0.755,-0.105c0.237,-0.07 0.455,-0.176 0.654,-0.32l-0,-2.284l-1.46,-0l0,-0.736Z" style="fill:#fc9;fill-rule:nonzero;"/></g><g><path d="M10.161,72.219c0,0.559 0.085,1.052 0.254,1.479c0.169,0.427 0.393,0.785 0.673,1.075c0.279,0.29 0.6,0.51 0.964,0.66c0.364,0.15 0.742,0.225 1.136,0.225c0.3,0 0.58,-0.052 0.84,-0.155c0.261,-0.104 0.504,-0.244 0.73,-0.422c0.226,-0.178 0.439,-0.383 0.638,-0.616c0.198,-0.232 0.389,-0.478 0.571,-0.736l0.882,0.648c-0.191,0.304 -0.42,0.598 -0.689,0.882c-0.268,0.283 -0.57,0.533 -0.904,0.748c-0.334,0.216 -0.698,0.388 -1.091,0.517c-0.394,0.129 -0.81,0.194 -1.25,0.194c-0.74,-0 -1.422,-0.108 -2.046,-0.324c-0.624,-0.215 -1.163,-0.52 -1.615,-0.913c-0.453,-0.394 -0.806,-0.866 -1.06,-1.418c-0.254,-0.552 -0.38,-1.167 -0.38,-1.844c-0,-0.655 0.12,-1.258 0.361,-1.808c0.241,-0.55 0.581,-1.025 1.019,-1.424c0.437,-0.4 0.962,-0.712 1.573,-0.936c0.611,-0.224 1.287,-0.336 2.027,-0.336c0.495,-0 0.948,0.058 1.358,0.174c0.41,0.116 0.784,0.277 1.12,0.482c0.336,0.205 0.637,0.451 0.901,0.736c0.264,0.286 0.498,0.6 0.701,0.942l-0.888,0.622c-0.182,-0.258 -0.38,-0.501 -0.593,-0.729c-0.214,-0.229 -0.441,-0.429 -0.683,-0.6c-0.241,-0.171 -0.494,-0.307 -0.761,-0.406c-0.266,-0.099 -0.543,-0.149 -0.831,-0.149c-0.393,-0 -0.769,0.074 -1.126,0.222c-0.358,0.148 -0.672,0.367 -0.943,0.657c-0.27,0.289 -0.486,0.648 -0.647,1.075c-0.16,0.427 -0.241,0.92 -0.241,1.478Z" style="fill:#fc9;fill-rule:nonzero;"/><path d="M22.556,72.219c-0,0.559 0.084,1.052 0.253,1.479c0.17,0.427 0.394,0.785 0.673,1.075c0.279,0.29 0.601,0.51 0.964,0.66c0.364,0.15 0.743,0.225 1.136,0.225c0.301,0 0.581,-0.052 0.841,-0.155c0.26,-0.104 0.503,-0.244 0.73,-0.422c0.226,-0.178 0.438,-0.383 0.637,-0.616c0.199,-0.232 0.389,-0.478 0.571,-0.736l0.882,0.648c-0.19,0.304 -0.42,0.598 -0.688,0.882c-0.269,0.283 -0.57,0.533 -0.904,0.748c-0.335,0.216 -0.698,0.388 -1.092,0.517c-0.393,0.129 -0.81,0.194 -1.25,0.194c-0.74,-0 -1.422,-0.108 -2.046,-0.324c-0.624,-0.215 -1.162,-0.52 -1.615,-0.913c-0.452,-0.394 -0.805,-0.866 -1.059,-1.418c-0.254,-0.552 -0.381,-1.167 -0.381,-1.844c0,-0.655 0.121,-1.258 0.362,-1.808c0.241,-0.55 0.58,-1.025 1.018,-1.424c0.438,-0.4 0.962,-0.712 1.574,-0.936c0.611,-0.224 1.287,-0.336 2.027,-0.336c0.495,-0 0.947,0.058 1.358,0.174c0.41,0.116 0.783,0.277 1.119,0.482c0.337,0.205 0.637,0.451 0.901,0.736c0.265,0.286 0.499,0.6 0.702,0.942l-0.889,0.622c-0.182,-0.258 -0.379,-0.501 -0.593,-0.729c-0.214,-0.229 -0.441,-0.429 -0.682,-0.6c-0.241,-0.171 -0.495,-0.307 -0.761,-0.406c-0.267,-0.099 -0.544,-0.149 -0.832,-0.149c-0.393,-0 -0.768,0.074 -1.126,0.222c-0.357,0.148 -0.671,0.367 -0.942,0.657c-0.271,0.289 -0.486,0.648 -0.647,1.075c-0.161,0.427 -0.241,0.92 -0.241,1.478Z" style="fill:#fc9;fill-rule:nonzero;"/><path d="M39.227,67.924l-0,0.736l-4.315,-0l0,2.836l3.585,0l-0,0.736l-3.585,0l0,3.414l4.315,-0l-0,0.882l-6.428,-0l0,-8.604l6.428,-0Z" style="fill:#fc9;fill-rule:nonzero;"/></g></g></g></svg>